<?xml version="1.0" standalone="no"?>
<!DOCTYPE svg PUBLIC "-//W3C//DTD SVG 20010904//EN"
 "http://www.w3.org/TR/2001/REC-SVG-20010904/DTD/svg10.dtd">
<svg version="1.0" xmlns="http://www.w3.org/2000/svg"
 width="700.000000pt" height="700.000000pt" viewBox="0 0 700.000000 700.000000"
 preserveAspectRatio="xMidYMid meet">
<metadata>
Created by potrace 1.14, written by Peter Selinger 2001-2017
</metadata>
<g transform="translate(0.000000,700.000000) scale(0.100000,-0.100000)"
fill="#000000" stroke="none">
<path d="M2932 6738 c-195 -282 -544 -626 -1072 -1057 -96 -79 -184 -151 -195
-160 -11 -9 -92 -74 -180 -145 -166 -134 -378 -310 -405 -336 -9 -8 -48 -42
-86 -74 -38 -33 -144 -134 -235 -225 -279 -279 -450 -515 -516 -711 -27 -83
-24 -244 6 -329 22 -58 95 -199 110 -211 4 -3 54 -66 112 -140 57 -74 110
-142 116 -150 7 -8 65 -82 129 -165 64 -82 127 -163 140 -180 13 -16 132 -169
264 -340 133 -170 251 -322 263 -337 12 -15 31 -39 42 -53 10 -15 104 -136
208 -268 104 -133 223 -287 265 -342 42 -54 82 -106 88 -115 23 -27 123 -154
228 -290 36 -47 69 -89 73 -95 5 -5 24 -30 43 -55 19 -25 41 -52 47 -60 7 -8
41 -52 75 -96 312 -404 385 -495 418 -521 101 -81 260 -83 374 -5 37 26 95 88
186 202 281 351 749 894 1095 1270 33 35 90 96 127 135 36 38 80 86 98 105
104 114 582 589 746 740 362 336 765 659 1039 834 33 21 71 46 85 56 14 9 55
33 93 54 37 21 67 40 67 42 0 2 -21 39 -47 82 -90 150 -212 299 -381 465 l-89
89 28 86 c77 242 93 479 45 668 l-12 49 -115 1 c-172 2 -306 21 -492 70 -32 8
-66 17 -75 19 -72 14 -441 149 -582 212 -290 130 -796 393 -912 474 -14 11
-28 19 -31 19 -17 0 -505 316 -659 427 -103 74 -290 214 -298 222 -3 3 -25 22
-50 42 -25 20 -69 60 -97 88 l-52 51 -29 -42z m143 -327 c401 -319 1043 -719
1580 -986 394 -195 680 -308 1021 -400 87 -24 245 -54 319 -61 39 -4 77 -8 85
-10 8 -1 30 -3 49 -3 l34 -1 -6 -117 c-8 -152 -12 -176 -52 -308 -117 -387
-393 -820 -860 -1350 -153 -174 -554 -583 -735 -749 -41 -38 -97 -90 -125
-115 -27 -26 -93 -84 -145 -131 -52 -46 -100 -89 -106 -95 -6 -5 -22 -19 -35
-30 -54 -44 -154 -130 -159 -135 -16 -18 -458 -379 -505 -412 -5 -4 -26 -20
-45 -36 -60 -50 -400 -304 -524 -392 -65 -47 -141 -109 -168 -139 -27 -30 -53
-50 -57 -45 -5 5 -225 288 -490 629 -265 341 -487 627 -494 635 -23 28 -707
907 -813 1045 -81 104 -218 280 -243 311 -51 62 -64 80 -97 131 -100 153 -103
280 -11 441 107 189 383 502 637 724 99 86 173 149 196 168 10 8 71 58 134
111 135 112 460 375 499 404 63 47 455 381 537 459 172 162 368 366 451 468
21 27 41 48 46 48 4 0 41 -27 82 -59z"/>
<path d="M3073 5997 c-17 -18 -89 -84 -183 -167 -47 -41 -90 -79 -96 -85 -6
-5 -43 -39 -84 -75 -123 -109 -118 -100 -73 -137 21 -18 40 -33 43 -33 3 0 21
14 40 31 46 41 168 150 248 222 36 32 66 56 68 54 2 -2 -30 -97 -71 -212 -41
-115 -76 -217 -77 -226 -2 -12 14 -30 46 -53 l49 -35 25 20 c14 10 63 54 110
97 47 42 90 82 96 87 6 6 52 46 101 90 49 44 106 95 126 113 20 18 45 40 55
47 18 14 18 15 -5 34 -14 10 -37 26 -52 35 l-27 16 -148 -133 c-171 -153 -214
-190 -214 -184 0 3 13 41 29 84 16 43 51 141 79 218 l49 140 -45 33 c-48 34
-70 39 -89 19z"/>
<path d="M3603 5667 c-4 -7 -66 -64 -138 -126 -71 -63 -137 -122 -146 -130 -9
-9 -51 -47 -95 -86 -43 -38 -91 -82 -107 -96 l-28 -26 201 -147 c110 -80 206
-146 213 -146 11 0 97 75 97 85 0 2 -15 13 -33 24 -18 11 -43 28 -55 38 -12
10 -66 49 -120 87 l-99 69 71 62 70 63 137 -94 137 -94 46 41 c25 23 43 45 40
50 -3 5 -64 48 -135 96 l-130 86 53 48 c29 27 57 49 62 49 6 0 76 -43 158 -96
l148 -96 50 43 c27 23 50 43 50 44 0 3 -290 188 -328 210 -10 6 -34 20 -53 33
-42 25 -55 27 -66 9z"/>
<path d="M2216 5481 l-29 -29 119 -94 c66 -51 191 -150 279 -218 157 -123 250
-196 290 -229 11 -9 81 -63 155 -121 74 -57 218 -170 320 -250 102 -80 202
-159 223 -175 49 -38 207 -162 227 -178 48 -39 286 -225 309 -242 14 -11 89
-69 166 -130 77 -61 232 -182 345 -270 113 -87 207 -162 210 -165 7 -8 104
-80 111 -83 4 -1 28 17 54 41 l46 42 -308 237 c-169 130 -344 264 -388 298
-44 33 -217 166 -385 295 -168 129 -390 300 -495 380 -269 207 -333 256 -670
514 -165 127 -351 270 -414 318 -62 48 -119 88 -125 87 -6 0 -24 -13 -40 -28z"/>
<path d="M4054 5284 c-32 -52 -65 -102 -72 -112 -7 -9 -27 -40 -45 -69 -18
-28 -60 -96 -95 -150 -34 -54 -68 -107 -75 -118 -7 -11 -22 -34 -34 -52 l-23
-32 59 -44 58 -45 63 37 c34 20 74 43 89 52 14 9 98 60 186 114 88 53 174 107
190 118 l30 22 -15 -22 c-8 -11 -88 -119 -177 -240 -90 -120 -163 -220 -163
-223 1 -9 117 -90 129 -90 6 0 66 29 134 64 67 35 234 121 370 191 137 70 259
133 273 139 22 12 23 14 6 27 -9 8 -42 31 -73 51 l-56 36 -234 -134 c-129 -73
-241 -138 -249 -144 -8 -5 -27 -17 -43 -25 -27 -15 -27 -15 8 32 20 26 42 55
48 63 72 91 248 343 243 348 -4 3 -37 25 -73 48 l-67 42 -60 -38 c-347 -217
-445 -276 -439 -267 3 7 25 37 48 67 23 30 73 99 111 154 38 54 86 123 106
152 l38 53 -28 19 c-15 11 -45 31 -68 45 l-40 25 -60 -94z"/>
<path d="M1900 5207 c-135 -100 -271 -213 -398 -332 -114 -107 -356 -357 -392
-405 l-19 -26 86 -89 c47 -50 189 -197 317 -329 127 -131 258 -266 290 -300
32 -33 114 -118 182 -187 l123 -127 43 36 c24 20 48 42 53 48 6 6 73 66 150
135 77 68 145 128 151 134 6 5 46 42 89 80 43 39 83 75 89 80 6 6 49 44 96 85
47 41 87 78 90 81 3 3 55 49 115 103 61 54 111 101 113 105 1 4 -62 61 -140
126 -79 66 -145 122 -148 125 -3 3 -25 21 -50 41 -25 20 -55 45 -66 55 -12 11
-43 37 -70 59 -26 22 -80 67 -120 100 -39 33 -93 78 -119 100 -27 22 -70 57
-95 79 -25 21 -54 45 -65 55 -39 31 -210 175 -230 192 -19 16 -22 15 -75 -24z"/>
<path d="M4990 4705 c-64 -17 -108 -42 -148 -84 -90 -95 -70 -160 105 -346 97
-104 119 -142 102 -179 -36 -78 -183 -55 -292 47 -50 46 -66 87 -50 126 6 14
13 33 16 41 5 10 -14 29 -62 62 l-69 48 -31 -35 c-87 -100 -45 -243 107 -357
126 -96 195 -122 322 -123 109 0 165 20 227 84 56 57 68 109 42 175 -17 41
-34 63 -142 180 -139 149 -148 168 -101 211 46 42 135 30 218 -29 80 -57 105
-114 71 -163 -17 -24 -20 -21 78 -86 l67 -45 24 31 c55 74 62 124 27 201 -38
88 -166 188 -294 230 -63 21 -160 26 -217 11z"/>
<path d="M815 4233 c-90 -71 -146 -147 -183 -244 l-21 -57 130 -158 c72 -88
138 -168 147 -179 9 -11 55 -68 101 -125 47 -58 99 -121 115 -141 17 -20 45
-54 62 -75 164 -201 426 -523 589 -723 110 -134 235 -287 278 -340 43 -53 83
-103 90 -111 7 -8 52 -64 102 -125 49 -60 103 -126 120 -146 47 -58 60 -73
230 -282 87 -108 164 -197 170 -197 5 0 33 22 61 48 29 26 80 72 114 102 35
30 75 66 90 80 15 14 48 44 73 67 26 22 47 44 47 48 0 6 -106 129 -184 215
-13 14 -87 99 -166 190 -79 91 -153 176 -166 190 -13 14 -62 70 -110 125 -48
55 -113 129 -144 165 -31 36 -96 110 -144 165 -48 55 -98 111 -110 125 -13 14
-87 99 -166 190 -143 166 -226 261 -310 355 -25 28 -70 80 -100 115 -30 35
-59 68 -65 74 -24 27 -172 196 -288 330 -10 12 -31 35 -45 51 -15 17 -56 64
-92 105 -36 41 -81 93 -102 115 -20 22 -45 51 -55 63 l-19 24 -49 -39z"/>
<path d="M3318 4072 c-1 -5 -28 -31 -58 -58 -152 -135 -213 -189 -236 -210
l-25 -24 33 -29 c18 -16 45 -39 59 -52 138 -127 224 -205 274 -249 33 -30 80
-73 105 -96 25 -23 55 -51 68 -62 13 -11 60 -54 105 -95 45 -42 91 -84 103
-94 12 -10 63 -57 115 -104 52 -47 123 -112 159 -144 36 -33 85 -77 109 -100
46 -42 53 -48 88 -78 21 -19 22 -18 135 84 179 162 191 172 235 211 l43 38
-338 281 c-185 156 -366 307 -402 337 -36 31 -157 132 -270 226 -113 94 -218
183 -235 198 -29 27 -60 36 -67 20z"/>
<path d="M2639 3463 c-4 -7 -123 -116 -218 -199 -18 -16 -49 -44 -68 -62 l-35
-32 27 -33 c15 -17 91 -99 169 -182 161 -171 265 -282 318 -340 20 -22 58 -62
84 -90 26 -27 77 -82 113 -120 36 -39 125 -134 197 -210 72 -77 151 -161 174
-187 23 -27 45 -48 49 -48 4 0 16 8 27 18 11 9 60 53 109 97 50 44 108 96 130
116 22 21 59 54 83 76 l43 38 -54 55 c-188 192 -1121 1106 -1132 1108 -7 2
-15 -1 -16 -5z"/>
</g>
</svg>
